<?xml version="1.0" standalone="no"?>
<svg xmlns="http://www.w3.org/2000/svg" xmlns:xlink="http://www.w3.org/1999/xlink" version="1.1" id="v-2" width="1366" height="571" xmlns:ev="http://www.w3.org/2001/xml-events" style="overflow: hidden; width: 1366px; height: 571px;"><g id="v-3" class="joint-viewport svg-pan-zoom_viewport" transform="matrix(1,0,0,1,0,0)" style="transform: matrix(1, 0, 0, 1, 0, 0);"><g model-id="dfb63855-2ef3-4518-a92a-c635f8073b61" id="j_43" class="joint-cell joint-type-uml joint-type-uml-class joint-element joint-theme-default" data-type="uml.Class" fill="#ffffff" stroke="none" transform="translate(475,0)"><g class="rotatable" id="v-545"><g class="scalable" transform="scale(1.197451171875,0.6857142857142857)"><rect class="uml-class-name-rect" id="v-546" width="200" stroke="#ffffff" stroke-width="0.5" fill="#feb662" height="40" transform="translate(0,0)"/><rect class="uml-class-attrs-rect" id="v-547" width="200" stroke="#fff" stroke-width="0.5" fill="#fdc886" height="100" transform="translate(0,40)"/><rect class="uml-class-methods-rect" id="v-548" width="200" stroke="#fff" stroke-width="0.5" fill="#fdc886" display="none" height="20" transform="translate(0,140)"/></g><text class="uml-class-name-text" id="v-549" font-size="12" xml:space="preserve" y="0.8em" text-anchor="middle" font-weight="bold" fill="black" font-family="Times New Roman" transform="matrix(1,0,0,1,119.7,8.1)"><tspan id="v-552" class="v-line" dy="0em">ACCOUNT</tspan></text><text class="uml-class-attrs-text" id="v-550" font-size="12" xml:space="preserve" y="0.8em" fill="black" font-family="monospace" transform="matrix(1,0,0,1,5,39.1)"><tspan id="v-553" class="v-line" dy="0em">INT(10)        acc_id              PK AI</tspan><tspan id="v-554" class="v-line" dy="1em" x="0">ENUM('company',acc_type            NN</tspan><tspan id="v-555" class="v-line" dy="1em" x="0">VARCHAR(255)   username            UQ</tspan><tspan id="v-556" class="v-line" dy="1em" x="0">VARCHAR(255)   password</tspan></text><text class="uml-class-methods-text" id="v-551" font-size="12" display="none" xml:space="preserve" y="0.8em" fill="black" font-family="Times New Roman" transform="matrix(1,0,0,1,5,5)"><tspan id="v-557" class="v-line v-empty-line" dy="0em" style="fill-opacity: 0; stroke-opacity: 0;">-</tspan></text></g></g><g model-id="5f4c6917-ffdd-4953-83d6-ca580db816f8" id="j_44" class="joint-cell joint-type-uml joint-type-uml-class joint-element joint-theme-default" data-type="uml.Class" fill="#ffffff" stroke="none" transform="translate(332,185)"><g class="rotatable" id="v-558"><g class="scalable" transform="scale(1.28037109375,0.6933333333333334)"><rect class="uml-class-name-rect" id="v-559" width="200" stroke="#ffffff" stroke-width="0.5" fill="#feb662" height="40" transform="translate(0,0)"/><rect class="uml-class-attrs-rect" id="v-560" width="200" stroke="#fff" stroke-width="0.5" fill="#fdc886" height="260" transform="translate(0,40)"/><rect class="uml-class-methods-rect" id="v-561" width="200" stroke="#fff" stroke-width="0.5" fill="#fdc886" display="none" height="20" transform="translate(0,300)"/></g><text class="uml-class-name-text" id="v-562" font-size="12" xml:space="preserve" y="0.8em" text-anchor="middle" font-weight="bold" fill="black" font-family="Times New Roman" transform="matrix(1,0,0,1,128,8.3)"><tspan id="v-565" class="v-line" dy="0em">EMPLOYEE</tspan></text><text class="uml-class-attrs-text" id="v-563" font-size="12" xml:space="preserve" y="0.8em" fill="black" font-family="monospace" transform="matrix(1,0,0,1,5,47.3)"><tspan id="v-566" class="v-line" dy="0em">INT(10)        emp_id              PK AI</tspan><tspan id="v-567" class="v-line" dy="1em" x="0">VARCHAR(255)   emp_fname</tspan><tspan id="v-568" class="v-line" dy="1em" x="0">VARCHAR(255)   emp_lname</tspan><tspan id="v-569" class="v-line" dy="1em" x="0">ENUM('accountanemp_type</tspan><tspan id="v-570" class="v-line" dy="1em" x="0">DATE           entrance_date</tspan><tspan id="v-571" class="v-line" dy="1em" x="0">DATE           leave_date</tspan><tspan id="v-572" class="v-line" dy="1em" x="0">INT(10)        days_left</tspan><tspan id="v-573" class="v-line" dy="1em" x="0">FLOAT(8,3)     salary</tspan><tspan id="v-574" class="v-line" dy="1em" x="0">FLOAT(8,3)     bonus</tspan><tspan id="v-575" class="v-line" dy="1em" x="0">FLOAT(8.3)     reimburse</tspan><tspan id="v-576" class="v-line" dy="1em" x="0">INT(10)        account_acc_id      NN FK</tspan><tspan id="v-577" class="v-line" dy="1em" x="0">INT(10)        department_dep_id   NN FK</tspan></text><text class="uml-class-methods-text" id="v-564" font-size="12" display="none" xml:space="preserve" y="0.8em" fill="black" font-family="Times New Roman" transform="matrix(1,0,0,1,5,5)"><tspan id="v-578" class="v-line v-empty-line" dy="0em" style="fill-opacity: 0; stroke-opacity: 0;">-</tspan></text></g></g><g model-id="156a3f04-43a1-439c-9763-839789270aa3" id="j_45" class="joint-cell joint-type-uml joint-type-uml-class joint-element joint-theme-default" data-type="uml.Class" fill="#ffffff" stroke="none" transform="translate(614,187)"><g class="rotatable" id="v-579"><g class="scalable" transform="scale(1.21625,0.6916666666666667)"><rect class="uml-class-name-rect" id="v-580" width="200" stroke="#ffffff" stroke-width="0.5" fill="#feb662" height="40" transform="translate(0,0)"/><rect class="uml-class-attrs-rect" id="v-581" width="200" stroke="#fff" stroke-width="0.5" fill="#fdc886" height="200" transform="translate(0,40)"/><rect class="uml-class-methods-rect" id="v-582" width="200" stroke="#fff" stroke-width="0.5" fill="#fdc886" display="none" height="20" transform="translate(0,240)"/></g><text class="uml-class-name-text" id="v-583" font-size="12" xml:space="preserve" y="0.8em" text-anchor="middle" font-weight="bold" fill="black" font-family="Times New Roman" transform="matrix(1,0,0,1,121.6,8.2)"><tspan id="v-586" class="v-line" dy="0em">COMPANY</tspan></text><text class="uml-class-attrs-text" id="v-584" font-size="12" xml:space="preserve" y="0.8em" fill="black" font-family="monospace" transform="matrix(1,0,0,1,5,44.2)"><tspan id="v-587" class="v-line" dy="0em">INT(10)        company_id          PK AI</tspan><tspan id="v-588" class="v-line" dy="1em" x="0">VARCHAR(255)   company_name</tspan><tspan id="v-589" class="v-line" dy="1em" x="0">TEXT           company_address</tspan><tspan id="v-590" class="v-line" dy="1em" x="0">CHAR(9)        company_phone       UQ</tspan><tspan id="v-591" class="v-line" dy="1em" x="0">VARCHAR(255)   contract_fname</tspan><tspan id="v-592" class="v-line" dy="1em" x="0">VARCHAR(255)   contract_lname</tspan><tspan id="v-593" class="v-line" dy="1em" x="0">DATE           expires_date</tspan><tspan id="v-594" class="v-line" dy="1em" x="0">TEXT           other_notes</tspan><tspan id="v-595" class="v-line" dy="1em" x="0">INT(10)        account_acc_id      NN FK</tspan></text><text class="uml-class-methods-text" id="v-585" font-size="12" display="none" xml:space="preserve" y="0.8em" fill="black" font-family="Times New Roman" transform="matrix(1,0,0,1,5,5)"><tspan id="v-596" class="v-line v-empty-line" dy="0em" style="fill-opacity: 0; stroke-opacity: 0;">-</tspan></text></g></g><g model-id="5d2e4c53-bc79-4d51-a32d-7e2b886738b8" id="j_46" class="joint-cell joint-type-uml joint-type-uml-class joint-element joint-theme-default" data-type="uml.Class" fill="#ffffff" stroke="none" transform="translate(28,487)"><g class="rotatable" id="v-597"><g class="scalable" transform="scale(1.26970703125,0.6833333333333333)"><rect class="uml-class-name-rect" id="v-598" width="200" stroke="#ffffff" stroke-width="0.5" fill="#feb662" height="40" transform="translate(0,0)"/><rect class="uml-class-attrs-rect" id="v-599" width="200" stroke="#fff" stroke-width="0.5" fill="#fdc886" height="80" transform="translate(0,40)"/><rect class="uml-class-methods-rect" id="v-600" width="200" stroke="#fff" stroke-width="0.5" fill="#fdc886" display="none" height="20" transform="translate(0,120)"/></g><text class="uml-class-name-text" id="v-601" font-size="12" xml:space="preserve" y="0.8em" text-anchor="middle" font-weight="bold" fill="black" font-family="Times New Roman" transform="matrix(1,0,0,1,127,8.1)"><tspan id="v-604" class="v-line" dy="0em">ACCOUNTANT</tspan></text><text class="uml-class-attrs-text" id="v-602" font-size="12" xml:space="preserve" y="0.8em" fill="black" font-family="monospace" transform="matrix(1,0,0,1,5,38.1)"><tspan id="v-605" class="v-line" dy="0em">INT(10)        employee_emp_id     PK FK</tspan><tspan id="v-606" class="v-line" dy="1em" x="0">VARCHAR(255)   position</tspan><tspan id="v-607" class="v-line" dy="1em" x="0">CHAR(10)       phone               UQ</tspan></text><text class="uml-class-methods-text" id="v-603" font-size="12" display="none" xml:space="preserve" y="0.8em" fill="black" font-family="Times New Roman" transform="matrix(1,0,0,1,5,5)"><tspan id="v-608" class="v-line v-empty-line" dy="0em" style="fill-opacity: 0; stroke-opacity: 0;">-</tspan></text></g></g><g model-id="4c11d075-7a3e-4deb-8cad-81766ad3a386" id="j_47" class="joint-cell joint-type-uml joint-type-uml-class joint-element joint-theme-default" data-type="uml.Class" fill="#ffffff" stroke="none" transform="translate(333,484)"><g class="rotatable" id="v-609"><g class="scalable" transform="scale(1.26970703125,0.6833333333333333)"><rect class="uml-class-name-rect" id="v-610" width="200" stroke="#ffffff" stroke-width="0.5" fill="#feb662" height="40" transform="translate(0,0)"/><rect class="uml-class-attrs-rect" id="v-611" width="200" stroke="#fff" stroke-width="0.5" fill="#fdc886" height="80" transform="translate(0,40)"/><rect class="uml-class-methods-rect" id="v-612" width="200" stroke="#fff" stroke-width="0.5" fill="#fdc886" display="none" height="20" transform="translate(0,120)"/></g><text class="uml-class-name-text" id="v-613" font-size="12" xml:space="preserve" y="0.8em" text-anchor="middle" font-weight="bold" fill="black" font-family="Times New Roman" transform="matrix(1,0,0,1,127,8.1)"><tspan id="v-616" class="v-line" dy="0em">SALE</tspan></text><text class="uml-class-attrs-text" id="v-614" font-size="12" xml:space="preserve" y="0.8em" fill="black" font-family="monospace" transform="matrix(1,0,0,1,5,38.1)"><tspan id="v-617" class="v-line" dy="0em">INT(10)        employee_emp_id     PK FK</tspan><tspan id="v-618" class="v-line" dy="1em" x="0">VARCHAR(255)   position</tspan><tspan id="v-619" class="v-line" dy="1em" x="0">CHAR(10)       phone               UQ</tspan></text><text class="uml-class-methods-text" id="v-615" font-size="12" display="none" xml:space="preserve" y="0.8em" fill="black" font-family="Times New Roman" transform="matrix(1,0,0,1,5,5)"><tspan id="v-620" class="v-line v-empty-line" dy="0em" style="fill-opacity: 0; stroke-opacity: 0;">-</tspan></text></g></g><g model-id="f0c8bac5-f303-459e-9867-5624bc577cd8" id="j_48" class="joint-cell joint-type-uml joint-type-uml-class joint-element joint-theme-default" data-type="uml.Class" fill="#ffffff" stroke="none" transform="translate(820,526)"><g class="rotatable" id="v-621"><g class="scalable" transform="scale(1.19,0.6875)"><rect class="uml-class-name-rect" id="v-622" width="200" stroke="#ffffff" stroke-width="0.5" fill="#feb662" height="40" transform="translate(0,0)"/><rect class="uml-class-attrs-rect" id="v-623" width="200" stroke="#fff" stroke-width="0.5" fill="#fdc886" height="120" transform="translate(0,40)"/><rect class="uml-class-methods-rect" id="v-624" width="200" stroke="#fff" stroke-width="0.5" fill="#fdc886" display="none" height="20" transform="translate(0,160)"/></g><text class="uml-class-name-text" id="v-625" font-size="12" xml:space="preserve" y="0.8em" text-anchor="middle" font-weight="bold" fill="black" font-family="Times New Roman" transform="matrix(1,0,0,1,119,8.1)"><tspan id="v-628" class="v-line" dy="0em">MANAGER</tspan></text><text class="uml-class-attrs-text" id="v-626" font-size="12" xml:space="preserve" y="0.8em" fill="black" font-family="monospace" transform="matrix(1,0,0,1,5,40.1)"><tspan id="v-629" class="v-line" dy="0em">INT(10)        manag_id            PK AI</tspan><tspan id="v-630" class="v-line" dy="1em" x="0">VARCHAR(255)   manag_fname</tspan><tspan id="v-631" class="v-line" dy="1em" x="0">VARCHAR(255)   manag_lname</tspan><tspan id="v-632" class="v-line" dy="1em" x="0">VARCHAR(255)   manag_level</tspan><tspan id="v-633" class="v-line" dy="1em" x="0">CHAR(10)       manag_phone         UQ</tspan></text><text class="uml-class-methods-text" id="v-627" font-size="12" display="none" xml:space="preserve" y="0.8em" fill="black" font-family="Times New Roman" transform="matrix(1,0,0,1,5,5)"><tspan id="v-634" class="v-line v-empty-line" dy="0em" style="fill-opacity: 0; stroke-opacity: 0;">-</tspan></text></g></g><g model-id="780fc5ff-a254-417c-8a9c-8154a5a739e2" id="j_49" class="joint-cell joint-type-uml joint-type-uml-class joint-element joint-theme-default" data-type="uml.Class" fill="#ffffff" stroke="none" transform="translate(697,793)"><g class="rotatable" id="v-635"><g class="scalable" transform="scale(1.3434326171875,0.6916666666666667)"><rect class="uml-class-name-rect" id="v-636" width="200" stroke="#ffffff" stroke-width="0.5" fill="#feb662" height="40" transform="translate(0,0)"/><rect class="uml-class-attrs-rect" id="v-637" width="200" stroke="#fff" stroke-width="0.5" fill="#fdc886" height="200" transform="translate(0,40)"/><rect class="uml-class-methods-rect" id="v-638" width="200" stroke="#fff" stroke-width="0.5" fill="#fdc886" display="none" height="20" transform="translate(0,240)"/></g><text class="uml-class-name-text" id="v-639" font-size="12" xml:space="preserve" y="0.8em" text-anchor="middle" font-weight="bold" fill="black" font-family="Times New Roman" transform="matrix(1,0,0,1,134.3,8.2)"><tspan id="v-642" class="v-line" dy="0em">STORE</tspan></text><text class="uml-class-attrs-text" id="v-640" font-size="12" xml:space="preserve" y="0.8em" fill="black" font-family="monospace" transform="matrix(1,0,0,1,5,44.2)"><tspan id="v-643" class="v-line" dy="0em">INT(10)        store_id            PK AI</tspan><tspan id="v-644" class="v-line" dy="1em" x="0">VARCHAR(255)   store_name</tspan><tspan id="v-645" class="v-line" dy="1em" x="0">VARCHAR(255)   branch</tspan><tspan id="v-646" class="v-line" dy="1em" x="0">CHAR(10)       phone               UQ</tspan><tspan id="v-647" class="v-line" dy="1em" x="0">INT(10)        cost_total</tspan><tspan id="v-648" class="v-line" dy="1em" x="0">VARCHAR(255)   repaired</tspan><tspan id="v-649" class="v-line" dy="1em" x="0">TEXT           other_notes</tspan><tspan id="v-650" class="v-line" dy="1em" x="0">INT(10)        manage_manag_id     NN FK</tspan><tspan id="v-651" class="v-line" dy="1em" x="0">INT(10)        company_company_id  NN FK</tspan></text><text class="uml-class-methods-text" id="v-641" font-size="12" display="none" xml:space="preserve" y="0.8em" fill="black" font-family="Times New Roman" transform="matrix(1,0,0,1,5,5)"><tspan id="v-652" class="v-line v-empty-line" dy="0em" style="fill-opacity: 0; stroke-opacity: 0;">-</tspan></text></g></g><g model-id="8e67d2f5-a212-4b24-9dc9-ecdf8f6a28f0" id="j_50" class="joint-cell joint-type-uml joint-type-uml-class joint-element joint-theme-default" data-type="uml.Class" fill="#ffffff" stroke="none" transform="translate(18,784)"><g class="rotatable" id="v-653"><g class="scalable" transform="scale(1.3250439453125,0.6923076923076923)"><rect class="uml-class-name-rect" id="v-654" width="200" stroke="#ffffff" stroke-width="0.5" fill="#feb662" height="40" transform="translate(0,0)"/><rect class="uml-class-attrs-rect" id="v-655" width="200" stroke="#fff" stroke-width="0.5" fill="#fdc886" height="220" transform="translate(0,40)"/><rect class="uml-class-methods-rect" id="v-656" width="200" stroke="#fff" stroke-width="0.5" fill="#fdc886" display="none" height="20" transform="translate(0,260)"/></g><text class="uml-class-name-text" id="v-657" font-size="12" xml:space="preserve" y="0.8em" text-anchor="middle" font-weight="bold" fill="black" font-family="Times New Roman" transform="matrix(1,0,0,1,132.5,8.2)"><tspan id="v-660" class="v-line" dy="0em">COST</tspan></text><text class="uml-class-attrs-text" id="v-658" font-size="12" xml:space="preserve" y="0.8em" fill="black" font-family="monospace" transform="matrix(1,0,0,1,5,45.2)"><tspan id="v-661" class="v-line" dy="0em">INT(10)        cost_id             PK</tspan><tspan id="v-662" class="v-line" dy="1em" x="0">FLOAT(8,3)     electric_bill</tspan><tspan id="v-663" class="v-line" dy="1em" x="0">FLOAT(8,3)     water_bill</tspan><tspan id="v-664" class="v-line" dy="1em" x="0">FLOAT(8,3)     rent_fee</tspan><tspan id="v-665" class="v-line" dy="1em" x="0">FLOAT(8,3)     repair_fee</tspan><tspan id="v-666" class="v-line" dy="1em" x="0">FLOAT(8,3)     insurance_fee</tspan><tspan id="v-667" class="v-line" dy="1em" x="0">FLOAT(8,3)     other_fee</tspan><tspan id="v-668" class="v-line" dy="1em" x="0">DATE           date</tspan><tspan id="v-669" class="v-line" dy="1em" x="0">INT(10)        accountant_employee_NN FK</tspan><tspan id="v-670" class="v-line" dy="1em" x="0">INT(10)        store_store_id      NN FK</tspan></text><text class="uml-class-methods-text" id="v-659" font-size="12" display="none" xml:space="preserve" y="0.8em" fill="black" font-family="Times New Roman" transform="matrix(1,0,0,1,5,5)"><tspan id="v-671" class="v-line v-empty-line" dy="0em" style="fill-opacity: 0; stroke-opacity: 0;">-</tspan></text></g></g><g model-id="a43f74ea-acd9-4f9c-8ad6-b30eb079159f" id="j_51" class="joint-cell joint-type-uml joint-type-uml-class joint-element joint-theme-default" data-type="uml.Class" fill="#ffffff" stroke="none" transform="translate(323,656)"><g class="rotatable" id="v-672"><g class="scalable" transform="scale(1.333076171875,0.6916666666666667)"><rect class="uml-class-name-rect" id="v-673" width="200" stroke="#ffffff" stroke-width="0.5" fill="#feb662" height="40" transform="translate(0,0)"/><rect class="uml-class-attrs-rect" id="v-674" width="200" stroke="#fff" stroke-width="0.5" fill="#fdc886" height="200" transform="translate(0,40)"/><rect class="uml-class-methods-rect" id="v-675" width="200" stroke="#fff" stroke-width="0.5" fill="#fdc886" display="none" height="20" transform="translate(0,240)"/></g><text class="uml-class-name-text" id="v-676" font-size="12" xml:space="preserve" y="0.8em" text-anchor="middle" font-weight="bold" fill="black" font-family="Times New Roman" transform="matrix(1,0,0,1,133.3,8.2)"><tspan id="v-679" class="v-line" dy="0em">APERTURE</tspan></text><text class="uml-class-attrs-text" id="v-677" font-size="12" xml:space="preserve" y="0.8em" fill="black" font-family="monospace" transform="matrix(1,0,0,1,5,44.2)"><tspan id="v-680" class="v-line" dy="0em">INT(10)        aper_id             PK AI</tspan><tspan id="v-681" class="v-line" dy="1em" x="0">FLOAT(8,3)     aper_area</tspan><tspan id="v-682" class="v-line" dy="1em" x="0">VARCHAR(255)   aper_loc</tspan><tspan id="v-683" class="v-line" dy="1em" x="0">VARCHAR(255)   aper_pic</tspan><tspan id="v-684" class="v-line" dy="1em" x="0">INT(10)        aper_price</tspan><tspan id="v-685" class="v-line" dy="1em" x="0">BOOLEAN        aper_status         NN</tspan><tspan id="v-686" class="v-line" dy="1em" x="0">DATE           issue_date</tspan><tspan id="v-687" class="v-line" dy="1em" x="0">INT(10)        sale_employee_emp_idNN FK</tspan><tspan id="v-688" class="v-line" dy="1em" x="0">INT(10)        store_store_id      NN FK</tspan></text><text class="uml-class-methods-text" id="v-678" font-size="12" display="none" xml:space="preserve" y="0.8em" fill="black" font-family="Times New Roman" transform="matrix(1,0,0,1,5,5)"><tspan id="v-689" class="v-line v-empty-line" dy="0em" style="fill-opacity: 0; stroke-opacity: 0;">-</tspan></text></g></g><g model-id="6354237a-fb99-47c5-b057-4317ad6281ae" id="j_52" class="joint-cell joint-type-uml joint-type-uml-class joint-element joint-theme-default" data-type="uml.Class" fill="#ffffff" stroke="none" transform="translate(0,258)"><g class="rotatable" id="v-690"><g class="scalable" transform="scale(1.10181640625,0.68)"><rect class="uml-class-name-rect" id="v-691" width="200" stroke="#ffffff" stroke-width="0.5" fill="#feb662" height="40" transform="translate(0,0)"/><rect class="uml-class-attrs-rect" id="v-692" width="200" stroke="#fff" stroke-width="0.5" fill="#fdc886" height="60" transform="translate(0,40)"/><rect class="uml-class-methods-rect" id="v-693" width="200" stroke="#fff" stroke-width="0.5" fill="#fdc886" display="none" height="20" transform="translate(0,100)"/></g><text class="uml-class-name-text" id="v-694" font-size="12" xml:space="preserve" y="0.8em" text-anchor="middle" font-weight="bold" fill="black" font-family="Times New Roman" transform="matrix(1,0,0,1,110.2,8)"><tspan id="v-697" class="v-line" dy="0em">DEPARTMENT</tspan></text><text class="uml-class-attrs-text" id="v-695" font-size="12" xml:space="preserve" y="0.8em" fill="black" font-family="monospace" transform="matrix(1,0,0,1,5,37)"><tspan id="v-698" class="v-line" dy="0em">INT(10)        dep_id              PK AI</tspan><tspan id="v-699" class="v-line" dy="1em" x="0">VARCHAR(255)   dep_name</tspan></text><text class="uml-class-methods-text" id="v-696" font-size="12" display="none" xml:space="preserve" y="0.8em" fill="black" font-family="Times New Roman" transform="matrix(1,0,0,1,5,5)"><tspan id="v-700" class="v-line v-empty-line" dy="0em" style="fill-opacity: 0; stroke-opacity: 0;">-</tspan></text></g></g><g model-id="ef593075-9675-4490-a327-20c1736b4f55" id="j_53" class="joint-cell joint-type-uml joint-type-uml-relationship joint-type-uml-relationship-identifying joint-type-uml-relationship-identifying-mandatory_one_optional_one joint-link joint-theme-default" data-type="uml.relationship.identifying.mandatory_one_optional_one" fill="transparent"><path class="connection" stroke="black" d="M 530 164 561 109"/><path class="marker-source" fill="none" stroke="black" d="M 10 0 L 10 20 L 10 10 L 0 10 L 14 10 a 5,5 0 1,0 10,0 a 5,5 0 1,0 -10,0" id="v-709" transform="translate(509.28164029792487,180.1020322313599) scale(1,1) rotate(-60.672821044921875)"/><path class="marker-target" fill="none" stroke="black" d="M 0 0 L 10 0 M 10 0 L 10 10 L 10 -10 M 15 0 L 15 10 L 15 -10" id="v-710" transform="translate(568.0000086365739,96.00000248918776) scale(1,1) rotate(-240.67282104492188)"/><path class="connection-wrap" d="M 530 164 561 109"/><g class="labels"><g class="label" id="v-705" label-idx="0" cursor="default" transform="translate(545.5, 136.5)" fill="black"><rect id="v-707" fill="white" rx="3" ry="3" width="39.921875" height="16.015625" transform="matrix(1,0,0,1,-19.9,-8)"/><text id="v-706" font-size="14" xml:space="preserve" y="0.8em" text-anchor="middle" pointer-events="none" transform="matrix(1,0,0,1,0,-6.2)"><tspan id="v-708" class="v-line" dy="0em">has_a</tspan></text></g></g></g><g model-id="b33e4240-1d15-4f38-8dfd-c36f3c465320" id="j_54" class="joint-cell joint-type-uml joint-type-uml-relationship joint-type-uml-relationship-nonidentifying joint-type-uml-relationship-nonidentifying-optional_one_mandatory_many joint-link joint-theme-default" data-type="uml.relationship.nonidentifying.optional_one_mandatory_many" fill="transparent"><path class="connection" stroke="black" d="M 322 290 244 291" id="v-721" stroke-dasharray="3,3"/><path class="marker-source" fill="none" stroke="black" d="M 0 0 L 10 10 L 0 10 L 10 10 L 0 20 L 10 10" id="v-719" transform="translate(332.089295629738,299.99960800673335) scale(1,1) rotate(-180.5115509033203)"/><path class="marker-target" fill="none" stroke="black" d="M 10 0 L 10 20 L 10 10 L 0 10 L 14 10 a 5,5 0 1,0 10,0 a 5,5 0 1,0 -10,0" id="v-720" transform="translate(219.91072311244847,281.0003899396353) scale(1,1) rotate(-0.5115558505058289)"/><path class="connection-wrap" d="M 322 290 244 291"/><g class="labels"><g class="label" id="v-715" label-idx="0" cursor="default" transform="translate(283, 290.5)" fill="black"><rect id="v-717" fill="white" rx="3" ry="3" width="49.234375" height="16.015625" transform="matrix(1,0,0,1,-24.5,-8)"/><text id="v-716" font-size="14" xml:space="preserve" y="0.8em" text-anchor="middle" pointer-events="none" transform="matrix(1,0,0,1,0,-6.2)"><tspan id="v-718" class="v-line" dy="0em">include</tspan></text></g></g></g><g model-id="406ef50c-085b-4ecb-a51d-d3862baf2931" id="j_55" class="joint-cell joint-type-uml joint-type-uml-relationship joint-type-uml-relationship-identifying joint-type-uml-relationship-identifying-mandatory_one_optional_one joint-link joint-theme-default" data-type="uml.relationship.identifying.mandatory_one_optional_one" fill="transparent"><path class="connection" stroke="black" d="M 670 167 633 109"/><path class="marker-source" fill="none" stroke="black" d="M 10 0 L 10 20 L 10 10 L 0 10 L 14 10 a 5,5 0 1,0 10,0 a 5,5 0 1,0 -10,0" id="v-730" transform="translate(674.5671964316615,192.37475199028088) scale(1,1) rotate(-122.51191711425781)"/><path class="marker-target" fill="none" stroke="black" d="M 0 0 L 10 0 M 10 0 L 10 10 L 10 -10 M 15 0 L 15 10 L 15 -10" id="v-731" transform="translate(625.0000059578219,96.00000159811145) scale(1,1) rotate(57.48809814453125)"/><path class="connection-wrap" d="M 670 167 633 109"/><g class="labels"><g class="label" id="v-726" label-idx="0" cursor="default" transform="translate(651.5, 138)" fill="black"><rect id="v-728" fill="white" rx="3" ry="3" width="39.921875" height="16.015625" transform="matrix(1,0,0,1,-19.9,-8)"/><text id="v-727" font-size="14" xml:space="preserve" y="0.8em" text-anchor="middle" pointer-events="none" transform="matrix(1,0,0,1,0,-6.2)"><tspan id="v-729" class="v-line" dy="0em">has_a</tspan></text></g></g></g><g model-id="b3d4ff1b-bed8-4eee-8ede-197c3c6783c4" id="j_56" class="joint-cell joint-type-uml joint-type-uml-relationship joint-type-uml-relationship-identifying joint-type-uml-relationship-identifying-optional_one_optional_one joint-link joint-theme-default" data-type="uml.relationship.identifying.optional_one_optional_one" fill="transparent"><path class="connection" stroke="black" d="M 226 472 313 404"/><path class="marker-source" fill="none" stroke="black" d="M 10 0 L 10 20 L 10 10 L 0 10 L 14 10 a 5,5 0 1,0 10,0 a 5,5 0 1,0 -10,0" id="v-740" transform="translate(200.83012965511224,479.1302729469708) scale(1,1) rotate(-38.09644699096679)"/><path class="marker-target" fill="none" stroke="black" d="M 10 0 L 10 20 L 10 10 L 0 10 L 14 10 a 5,5 0 1,0 10,0 a 5,5 0 1,0 -10,0" id="v-741" transform="translate(338.16988563469516,396.8697260134942) scale(1,1) rotate(-218.09645080566406)"/><path class="connection-wrap" d="M 226 472 313 404"/><g class="labels"><g class="label" id="v-736" label-idx="0" cursor="default" transform="translate(269.5, 438)" fill="black"><rect id="v-738" fill="white" rx="3" ry="3" width="39.921875" height="16.015625" transform="matrix(1,0,0,1,-19.9,-8)"/><text id="v-737" font-size="14" xml:space="preserve" y="0.8em" text-anchor="middle" pointer-events="none" transform="matrix(1,0,0,1,0,-6.2)"><tspan id="v-739" class="v-line" dy="0em">has_a</tspan></text></g></g></g><g model-id="0bfb6ea0-d050-483f-95fa-3c08826d89e0" id="j_57" class="joint-cell joint-type-uml joint-type-uml-relationship joint-type-uml-relationship-identifying joint-type-uml-relationship-identifying-optional_one_optional_one joint-link joint-theme-default" data-type="uml.relationship.identifying.optional_one_optional_one" fill="transparent"><path class="connection" stroke="black" d="M 460 460 460 417"/><path class="marker-source" fill="none" stroke="black" d="M 10 0 L 10 20 L 10 10 L 0 10 L 14 10 a 5,5 0 1,0 10,0 a 5,5 0 1,0 -10,0" id="v-750" transform="translate(450,484) scale(1,1) rotate(-90)"/><path class="marker-target" fill="none" stroke="black" d="M 10 0 L 10 20 L 10 10 L 0 10 L 14 10 a 5,5 0 1,0 10,0 a 5,5 0 1,0 -10,0" id="v-751" transform="translate(470,393) scale(1,1) rotate(-270)"/><path class="connection-wrap" d="M 460 460 460 417"/><g class="labels"><g class="label" id="v-746" label-idx="0" cursor="default" transform="translate(460, 438.5)" fill="black"><rect id="v-748" fill="white" rx="3" ry="3" width="39.921875" height="16.015625" transform="matrix(1,0,0,1,-19.9,-8)"/><text id="v-747" font-size="14" xml:space="preserve" y="0.8em" text-anchor="middle" pointer-events="none" transform="matrix(1,0,0,1,0,-6.2)"><tspan id="v-749" class="v-line" dy="0em">has_a</tspan></text></g></g></g><g model-id="70dd5b52-aa7e-405b-a264-ff4168134d16" id="j_58" class="joint-cell joint-type-uml joint-type-uml-relationship joint-type-uml-relationship-nonidentifying joint-type-uml-relationship-nonidentifying-optional_one_mandatory_many joint-link joint-theme-default" data-type="uml.relationship.nonidentifying.optional_one_mandatory_many" fill="transparent"><path class="connection" stroke="black" d="M 865 784 911 659" id="v-762" stroke-dasharray="3,3"/><path class="marker-source" fill="none" stroke="black" d="M 0 0 L 10 10 L 0 10 L 10 10 L 0 20 L 10 10" id="v-760" transform="translate(852.6003063117463,789.5873889165446) scale(1,1) rotate(-70.04620361328125)"/><path class="marker-target" fill="none" stroke="black" d="M 10 0 L 10 20 L 10 10 L 0 10 L 14 10 a 5,5 0 1,0 10,0 a 5,5 0 1,0 -10,0" id="v-761" transform="translate(928.3996745222311,639.412607178432) scale(1,1) rotate(-250.04620361328125)"/><path class="connection-wrap" d="M 865 784 911 659"/><g class="labels"><g class="label" id="v-756" label-idx="0" cursor="default" transform="translate(888, 721.5)" fill="black"><rect id="v-758" fill="white" rx="3" ry="3" width="53.140625" height="16.015625" transform="matrix(1,0,0,1,-26.5,-8)"/><text id="v-757" font-size="14" xml:space="preserve" y="0.8em" text-anchor="middle" pointer-events="none" transform="matrix(1,0,0,1,0,-6.2)"><tspan id="v-759" class="v-line" dy="0em">manage</tspan></text></g></g></g><g model-id="7e50710a-d25d-4d16-b93c-0715e9138e73" id="j_59" class="joint-cell joint-type-uml joint-type-uml-relationship joint-type-uml-relationship-identifying joint-type-uml-relationship-identifying-optional_one_mandatory_many joint-link joint-theme-default" data-type="uml.relationship.identifying.optional_one_mandatory_many" fill="transparent"><path class="connection" stroke="black" d="M 816 783 753 377"/><path class="marker-source" fill="none" stroke="black" d="M 0 0 L 10 10 L 0 10 L 10 10 L 0 20 L 10 10" id="v-771" transform="translate(808.1207644600807,794.5492434968806) scale(1,1) rotate(-98.91243743896484)"/><path class="marker-target" fill="none" stroke="black" d="M 10 0 L 10 20 L 10 10 L 0 10 L 14 10 a 5,5 0 1,0 10,0 a 5,5 0 1,0 -10,0" id="v-772" transform="translate(758.8792325081007,351.4507379318136) scale(1,1) rotate(81.08755493164065)"/><path class="connection-wrap" d="M 816 783 753 377"/><g class="labels"><g class="label" id="v-767" label-idx="0" cursor="default" transform="translate(784.5, 580)" fill="black"><rect id="v-769" fill="white" rx="3" ry="3" width="41.484375" height="16.015625" transform="matrix(1,0,0,1,-20.6,-8)"/><text id="v-768" font-size="14" xml:space="preserve" y="0.8em" text-anchor="middle" pointer-events="none" transform="matrix(1,0,0,1,0,-6.2)"><tspan id="v-770" class="v-line" dy="0em">create</tspan></text></g></g></g><g model-id="387f8874-2d97-4702-bfe7-3e9343788834" id="j_60" class="joint-cell joint-type-uml joint-type-uml-relationship joint-type-uml-relationship-identifying joint-type-uml-relationship-identifying-optional_one_mandatory_many joint-link joint-theme-default" data-type="uml.relationship.identifying.optional_one_mandatory_many" fill="transparent"><path class="connection" stroke="black" d="M 152 774 154 593"/><path class="marker-source" fill="none" stroke="black" d="M 0 0 L 10 10 L 0 10 L 10 10 L 0 20 L 10 10" id="v-781" transform="translate(142.00043198369374,783.9070089424707) scale(1,1) rotate(-89.46703338623047)"/><path class="marker-target" fill="none" stroke="black" d="M 10 0 L 10 20 L 10 10 L 0 10 L 14 10 a 5,5 0 1,0 10,0 a 5,5 0 1,0 -10,0" id="v-782" transform="translate(163.99957039440483,569.0929873798384) scale(1,1) rotate(-269.467041015625)"/><path class="connection-wrap" d="M 152 774 154 593"/><g class="labels"><g class="label" id="v-777" label-idx="0" cursor="default" transform="translate(153, 683.5)" fill="black"><rect id="v-779" fill="white" rx="3" ry="3" width="41.484375" height="16.015625" transform="matrix(1,0,0,1,-20.6,-8)"/><text id="v-778" font-size="14" xml:space="preserve" y="0.8em" text-anchor="middle" pointer-events="none" transform="matrix(1,0,0,1,0,-6.2)"><tspan id="v-780" class="v-line" dy="0em">create</tspan></text></g></g></g><g model-id="2ea2ddef-d92b-4742-91f5-fd16811fe994" id="j_61" class="joint-cell joint-type-uml joint-type-uml-relationship joint-type-uml-relationship-identifying joint-type-uml-relationship-identifying-optional_one_mandatory_many joint-link joint-theme-default" data-type="uml.relationship.identifying.optional_one_mandatory_many" fill="transparent"><path class="connection" stroke="black" d="M 293 874 673 876"/><path class="marker-source" fill="none" stroke="black" d="M 0 0 L 10 10 L 0 10 L 10 10 L 0 20 L 10 10" id="v-791" transform="translate(283.04830686477294,864.000131836076) scale(1,1) rotate(0.27679443359382105)"/><path class="marker-target" fill="none" stroke="black" d="M 10 0 L 10 20 L 10 10 L 0 10 L 14 10 a 5,5 0 1,0 10,0 a 5,5 0 1,0 -10,0" id="v-792" transform="translate(696.9516724864505,885.9998713753455) scale(1,1) rotate(-179.72320556640625)"/><path class="connection-wrap" d="M 293 874 673 876"/><g class="labels"><g class="label" id="v-787" label-idx="0" cursor="default" transform="translate(483, 875)" fill="black"><rect id="v-789" fill="white" rx="3" ry="3" width="90" height="16.015625" transform="matrix(1,0,0,1,-44.3,-8)"/><text id="v-788" font-size="14" xml:space="preserve" y="0.8em" text-anchor="middle" pointer-events="none" transform="matrix(1,0,0,1,0,-6.2)"><tspan id="v-790" class="v-line" dy="0em">outgoings_of</tspan></text></g></g></g><g model-id="d28fc49e-c3e9-4939-baa5-31b44ad69e84" id="j_62" class="joint-cell joint-type-uml joint-type-uml-relationship joint-type-uml-relationship-nonidentifying joint-type-uml-relationship-nonidentifying-optional_one_mandatory_many joint-link joint-theme-default" data-type="uml.relationship.nonidentifying.optional_one_mandatory_many" fill="transparent"><path class="connection" stroke="black" d="M 458 646 459 590" id="v-803" stroke-dasharray="3,3"/><path class="marker-source" fill="none" stroke="black" d="M 0 0 L 10 10 L 0 10 L 10 10 L 0 20 L 10 10" id="v-801" transform="translate(448.00060682765456,655.8888917646675) scale(1,1) rotate(-89.3634033203125)"/><path class="marker-target" fill="none" stroke="black" d="M 10 0 L 10 20 L 10 10 L 0 10 L 14 10 a 5,5 0 1,0 10,0 a 5,5 0 1,0 -10,0" id="v-802" transform="translate(468.9993772219977,566.1111130522121) scale(1,1) rotate(-269.3634033203125)"/><path class="connection-wrap" d="M 458 646 459 590"/><g class="labels"><g class="label" id="v-797" label-idx="0" cursor="default" transform="translate(458.5, 618)" fill="black"><rect id="v-799" fill="white" rx="3" ry="3" width="23.484375" height="16.015625" transform="matrix(1,0,0,1,-11.7,-8)"/><text id="v-798" font-size="14" xml:space="preserve" y="0.8em" text-anchor="middle" pointer-events="none" transform="matrix(1,0,0,1,0,-6.2)"><tspan id="v-800" class="v-line" dy="0em">sell</tspan></text></g></g></g><g model-id="9406014c-bf79-4a52-bcb3-a6224e177679" id="j_63" class="joint-cell joint-type-uml joint-type-uml-relationship joint-type-uml-relationship-nonidentifying joint-type-uml-relationship-nonidentifying-optional_one_mandatory_many joint-link joint-theme-default" data-type="uml.relationship.nonidentifying.optional_one_mandatory_many" fill="transparent"><path class="connection" stroke="black" d="M 599 791 674 819" id="v-814" stroke-dasharray="3,3"/><path class="marker-source" fill="none" stroke="black" d="M 0 0 L 10 10 L 0 10 L 10 10 L 0 20 L 10 10" id="v-812" transform="translate(593.4244894789256,778.6046113444919) scale(1,1) rotate(20.026092529296918)"/><path class="marker-target" fill="none" stroke="black" d="M 10 0 L 10 20 L 10 10 L 0 10 L 14 10 a 5,5 0 1,0 10,0 a 5,5 0 1,0 -10,0" id="v-813" transform="translate(693.5755466999974,836.3953692044362) scale(1,1) rotate(-159.97390747070312)"/><path class="connection-wrap" d="M 599 791 674 819"/><g class="labels"><g class="label" id="v-808" label-idx="0" cursor="default" transform="translate(636.5, 805)" fill="black"><rect id="v-810" fill="white" rx="3" ry="3" width="35.265625" height="16.015625" transform="matrix(1,0,0,1,-17.5,-8)"/><text id="v-809" font-size="14" xml:space="preserve" y="0.8em" text-anchor="middle" pointer-events="none" transform="matrix(1,0,0,1,0,-6.2)"><tspan id="v-811" class="v-line" dy="0em">iease</tspan></text></g></g></g></g><defs id="v-4"/></svg>